<?xml version="1.0" encoding="UTF-8" standalone="no"?>
<!-- Created with Inkscape (http://www.inkscape.org/) -->

<svg
   width="8.4680347mm"
   height="8.4666462mm"
   viewBox="0 0 8.4680347 8.4666462"
   version="1.1"
   id="svg5"
   xml:space="preserve"
   inkscape:version="1.2 (dc2aedaf03, 2022-05-15)"
   sodipodi:docname="dolar-czerwony.svg"
   xmlns:inkscape="http://www.inkscape.org/namespaces/inkscape"
   xmlns:sodipodi="http://sodipodi.sourceforge.net/DTD/sodipodi-0.dtd"
   xmlns="http://www.w3.org/2000/svg"
   xmlns:svg="http://www.w3.org/2000/svg"><sodipodi:namedview
     id="namedview7"
     pagecolor="#505050"
     bordercolor="#eeeeee"
     borderopacity="1"
     inkscape:showpageshadow="0"
     inkscape:pageopacity="0"
     inkscape:pagecheckerboard="0"
     inkscape:deskcolor="#505050"
     inkscape:document-units="mm"
     showgrid="false"
     inkscape:zoom="3.3638608"
     inkscape:cx="11.891098"
     inkscape:cy="18.72848"
     inkscape:window-width="1920"
     inkscape:window-height="1027"
     inkscape:window-x="-8"
     inkscape:window-y="22"
     inkscape:window-maximized="1"
     inkscape:current-layer="layer1" /><defs
     id="defs2" /><g
     inkscape:label="Warstwa 1"
     inkscape:groupmode="layer"
     id="layer1"
     transform="translate(-42.529225,-86.165507)"><path
       style="fill:#ff0000;stroke-width:0.0169572"
       d="m 46.360352,94.615061 c -1.237209,-0.118781 -2.360912,-0.77471 -3.07538,-1.795164 -0.390507,-0.55775 -0.636796,-1.195007 -0.734027,-1.899246 -0.02896,-0.20973 -0.02896,-0.841617 0,-1.051347 0.173721,-1.25825 0.834459,-2.318651 1.875878,-3.010549 0.534477,-0.355096 1.13391,-0.577903 1.806163,-0.671342 0.205964,-0.02863 0.841596,-0.02937 1.042868,-0.0012 0.813301,0.113775 1.507679,0.406152 2.118491,0.892021 1.113534,0.885757 1.715507,2.286755 1.585419,3.68981 -0.161,1.736449 -1.33961,3.182033 -3.006137,3.687081 -0.494082,0.149734 -1.097007,0.209509 -1.613275,0.159944 z m 0.893813,-1.831666 0.0047,-0.22299 0.127179,-0.03006 c 0.524264,-0.123922 0.918817,-0.481864 1.045358,-0.948362 0.04248,-0.15663 0.04323,-0.575834 0.0013,-0.727935 -0.04811,-0.174479 -0.129926,-0.321504 -0.249474,-0.448325 -0.241396,-0.256081 -0.476854,-0.365951 -1.187187,-0.553966 -0.181866,-0.04814 -0.375584,-0.105738 -0.430484,-0.128004 -0.184021,-0.07463 -0.264823,-0.163232 -0.264697,-0.290254 1.28e-4,-0.163328 0.156389,-0.26519 0.406026,-0.264734 0.154293,2.56e-4 0.209174,0.01524 0.309755,0.08445 0.06829,0.04699 0.132015,0.1587 0.132015,0.231436 v 0.04551 h 0.59594 0.59594 l -0.01117,-0.133934 c -0.03841,-0.4606 -0.273258,-0.831788 -0.64656,-1.02193 -0.14567,-0.0742 -0.309098,-0.134688 -0.428169,-0.15848 l -0.05511,-0.01101 v -0.210628 -0.210616 h -0.474802 -0.474802 v 0.211965 c 0,0.169516 -0.0047,0.211965 -0.02354,0.211965 -0.05854,0 -0.336437,0.09319 -0.455533,0.152762 -0.386724,0.193427 -0.60103,0.495762 -0.658724,0.929302 -0.0359,0.269766 0.0042,0.522601 0.120436,0.760178 0.05455,0.111449 0.09354,0.162482 0.202392,0.264881 0.217801,0.204893 0.464259,0.316208 1.001497,0.452335 0.536587,0.135964 0.67234,0.193715 0.759884,0.323266 0.03331,0.0493 0.03898,0.07557 0.03341,0.155196 -0.0086,0.123908 -0.06426,0.198775 -0.195405,0.263178 -0.124198,0.06099 -0.344226,0.07582 -0.475918,0.03208 -0.158896,-0.05278 -0.290243,-0.20817 -0.291165,-0.344468 l -3.84e-4,-0.05512 h -0.610459 -0.61046 l 1.92e-4,0.08902 c 6.41e-4,0.245105 0.11427,0.568871 0.276442,0.787486 0.184981,0.249361 0.541337,0.455399 0.931537,0.538596 l 0.04663,0.0099 v 0.220122 0.22012 h 0.47431 0.474309 l 0.0047,-0.222991 z"
       id="path803" /></g></svg>
