<?xml version="1.0" encoding="UTF-8" standalone="no"?>
<!-- Creator: CorelDRAW -->

<svg
   xml:space="preserve"
   width="15.340095mm"
   height="8.4666662mm"
   style="clip-rule:evenodd;fill-rule:evenodd;image-rendering:optimizeQuality;shape-rendering:geometricPrecision;text-rendering:geometricPrecision"
   viewBox="0 0 15.340095 8.466666"
   version="1.1"
   id="svg2013"
   sodipodi:docname="dolar-zielony.svg"
   inkscape:version="1.2 (dc2aedaf03, 2022-05-15)"
   xmlns:inkscape="http://www.inkscape.org/namespaces/inkscape"
   xmlns:sodipodi="http://sodipodi.sourceforge.net/DTD/sodipodi-0.dtd"
   xmlns="http://www.w3.org/2000/svg"
   xmlns:svg="http://www.w3.org/2000/svg"><sodipodi:namedview
   id="namedview2015"
   pagecolor="#505050"
   bordercolor="#eeeeee"
   borderopacity="1"
   inkscape:showpageshadow="0"
   inkscape:pageopacity="0"
   inkscape:pagecheckerboard="0"
   inkscape:deskcolor="#505050"
   inkscape:document-units="mm"
   showgrid="false"
   inkscape:zoom="8.2279173"
   inkscape:cx="-2.6130549"
   inkscape:cy="23.092113"
   inkscape:window-width="1920"
   inkscape:window-height="1027"
   inkscape:window-x="-8"
   inkscape:window-y="22"
   inkscape:window-maximized="1"
   inkscape:current-layer="Warstwa_x0020_1" />
 <defs
   id="defs2007">
  <style
   type="text/css"
   id="style2005">
   <![CDATA[
    .fil0 {fill:#00923F}
   ]]>
  </style>
 </defs>
 <g
   id="Warstwa_x0020_1"
   inkscape:label="Warstwa 1"
   inkscape:groupmode="layer"
   transform="translate(0,2e-4)">
  <metadata
   id="CorelCorpID_0Corel-Layer" />
  
 <path
   style="fill:#228c3a;fill-opacity:1;stroke-width:0.0232217"
   d="M 0,4.233133 V 1.2607558 H 4.9462221 9.8924432 V 4.233133 7.2055105 H 4.9462221 0 Z M 7.9342853,6.0603314 C 8.0047143,5.6491681 8.3172554,5.3276139 8.72019,5.2517617 c 0.076389,-0.01438 0.1519504,-0.029682 0.1679151,-0.034002 0.022638,-0.00613 0.029027,-0.2228823 0.029027,-0.984626 0,-0.7617437 -0.00639,-0.9784986 -0.029027,-0.984626 C 8.8721402,3.2441864 8.7965785,3.2288852 8.72019,3.214506 8.318889,3.1389599 8.0159836,2.8284874 7.9369118,2.4116589 L 7.9080077,2.2592895 H 4.944941 1.981872 L 1.953538,2.4130714 c -0.076494,0.4151079 -0.3793351,0.725767 -0.7812823,0.8014337 -0.076395,0.01438 -0.1519513,0.029681 -0.1679161,0.034002 -0.042388,0.011472 -0.042388,1.9577777 0,1.969252 0.015959,0.00432 0.091521,0.019623 0.1679161,0.034002 0.4019472,0.075667 0.7047958,0.3863259 0.7812823,0.8014332 L 1.981872,6.2069764 H 4.9455195 7.9091658 Z M 4.6708497,5.694799 C 4.3823263,5.6431769 4.0266011,5.4371413 3.8216349,5.2029361 3.7628078,5.1357204 3.6729191,4.9964545 3.6218783,4.8934569 3.4082397,4.4623471 3.4077868,4.0103464 3.6205519,3.5742952 4.0609294,2.6717842 5.2750202,2.4672776 5.9795831,3.1769305 c 0.186102,0.187447 0.2907233,0.3524297 0.3776953,0.5956095 0.053651,0.1500097 0.060823,0.2049386 0.06015,0.460593 -6.67e-4,0.2517987 -0.00873,0.3128466 -0.06092,0.4606006 C 6.1935375,5.1551985 5.8489841,5.4959672 5.3906093,5.6490233 5.2191221,5.7062855 4.8619833,5.7289984 4.6708455,5.6947994 Z M 2.2639174,4.6787515 C 1.7628742,4.4442931 1.9667511,3.7044751 2.5197678,3.7503353 c 0.4504735,0.037356 0.5998511,0.624404 0.2257215,0.8870762 -0.1284347,0.090175 -0.3386486,0.1082197 -0.4815719,0.04134 z m 4.9819463,0.016202 C 6.974207,4.5865359 6.8520517,4.2525766 6.9916664,4.0000046 7.1545317,3.7053705 7.5623343,3.658115 7.7878582,3.9077439 8.0739691,4.2244344 7.8477266,4.7223574 7.4193328,4.7188082 7.3554725,4.7182815 7.2774121,4.7075479 7.2458637,4.6949535 Z"
   id="path17893" /></g>
</svg>
