<?xml version="1.0" encoding="UTF-8" standalone="no"?>
<svg
   width="1518.2489"
   zoomAndPan="magnify"
   viewBox="0 0 1138.6867 243.67963"
   height="324.90619"
   preserveAspectRatio="xMidYMid meet"
   version="1.0"
   id="svg261"
   sodipodi:docname="eSEZ-medium-jasne.svg"
   inkscape:version="1.1 (c68e22c387, 2021-05-23)"
   inkscape:export-filename="C:\Users\BRAINBOX\Desktop\eSEZ-medium.png"
   inkscape:export-xdpi="126.46148"
   inkscape:export-ydpi="126.46148"
   xmlns:inkscape="http://www.inkscape.org/namespaces/inkscape"
   xmlns:sodipodi="http://sodipodi.sourceforge.net/DTD/sodipodi-0.dtd"
   xmlns="http://www.w3.org/2000/svg"
   xmlns:svg="http://www.w3.org/2000/svg">
  <sodipodi:namedview
     id="namedview263"
     pagecolor="#ffffff"
     bordercolor="#666666"
     borderopacity="1.0"
     inkscape:pageshadow="2"
     inkscape:pageopacity="0.0"
     inkscape:pagecheckerboard="0"
     showgrid="false"
     showguides="true"
     inkscape:guide-bbox="true"
     inkscape:zoom="0.35355339"
     inkscape:cx="654.78088"
     inkscape:cy="-425.67828"
     inkscape:window-width="1920"
     inkscape:window-height="1057"
     inkscape:window-x="1912"
     inkscape:window-y="-8"
     inkscape:window-maximized="1"
     inkscape:current-layer="g41051">
    <sodipodi:guide
       position="507.91573,60.754622"
       orientation="0,-1"
       id="guide26582" />
    <sodipodi:guide
       position="466.0669,182.38059"
       orientation="0,-1"
       id="guide40757" />
  </sodipodi:namedview>
  <defs
     id="defs7">
    <g
       id="g2" />
    <clipPath
       id="id1">
      <path
         d="M 95.105469,143.17578 H 302.85547 v 243.75 H 95.105469 Z m 0,0"
         clip-rule="nonzero"
         id="path4" />
    </clipPath>
  </defs>
  <g
     fill="#585858"
     fill-opacity="1"
     id="g117"
     transform="translate(-69.521392,-100.50346)">
    <g
       transform="translate(796.85909,230.75414)"
       id="g115">
      <g
         id="g113" />
    </g>
  </g>
  <g
     fill="#585858"
     fill-opacity="1"
     id="g195"
     transform="translate(-69.521392,-100.50346)">
    <g
       transform="translate(802.53096,278.00413)"
       id="g193">
      <g
         id="g191" />
    </g>
  </g>
  <g
     transform="matrix(0.97176318,0,0,0.97176318,641.53965,107.35521)"
     id="g163"
     style="fill:#585858;fill-opacity:1">
    <g
       id="g29464">
      <g
         id="g41051">
        <g
           id="g41799"
           transform="translate(-0.85353855)"
           inkscape:export-filename="C:\Users\BRAINBOX\Desktop\eSEZ-medium.png"
           inkscape:export-xdpi="126.46148"
           inkscape:export-ydpi="126.46148"
           style="fill:#ffffff">
          <g
             id="path9"
             style="fill:#ffffff">
            <path
               style="color:#000000;fill:#ffffff;stroke-width:3.77272;-inkscape-stroke:none"
               d="M -144.43477,77.765656 V -47.394436"
               id="path41346" />
            <path
               style="color:#000000;fill:#ffffff;-inkscape-stroke:none"
               d="M -146.32031,-47.394531 V 77.765625 h 3.77148 V -47.394531 Z"
               id="path41348" />
          </g>
          <g
             id="g1207"
             transform="matrix(1.0290573,0,0,1.0290573,-758.05525,-257.84693)"
             style="fill:#ffffff">
            <path
               fill="#585858"
               d="m 199.17636,204.23836 c -4.66797,-0.0117 -9.40234,0.64844 -14.07813,2.03516 -15.90234,4.72656 -28.5,17.40625 -33.09375,33.30468 -1.71484,5.94532 -1.7539,6.46485 -1.8789,24.48438 l -0.11719,16.69141 0.66797,1.18359 c 0.41797,0.74609 1.10547,1.40234 1.87109,1.78125 0.66797,0.32812 1.53516,0.59766 1.9336,0.59766 1.17968,0 3.10547,-1.10547 3.73437,-2.14454 0.5586,-0.92578 0.59375,-1.72656 0.75781,-17.73828 0.16016,-15.49218 0.22266,-16.96875 0.78516,-19.4375 1.19141,-5.20703 3.17578,-9.87109 6.05859,-14.24218 1.97266,-2.98829 7.69532,-8.73438 10.63672,-10.6875 7.44532,-4.9375 15.67188,-7.25782 24.32813,-6.86329 1.48047,0.0664 4.19531,0.23438 4.86719,-0.0195 1.44921,-0.54687 2.82421,-0.98047 3.37109,-2 0.54687,-1.01562 0.64844,-2.86718 0.0234,-4.15234 -0.6211,-1.28516 -3.91797,-2.41016 -3.91797,-2.41016 -1.96485,-0.24609 -3.94922,-0.3789 -5.94922,-0.38281 z m 19.08984,3.95703 c 0,0 -2.51172,0.23047 -3.41797,1 -0.80468,0.67578 -1.34375,1.78125 -1.3789,2.83203 -0.0391,1.1836 0.55859,2.25391 1.33594,3.29297 0.77734,1.03906 3.30859,2.64063 3.30859,2.64063 3.44531,1.90234 6.64062,4.37109 9.58594,7.40234 7.37109,7.60156 10.87109,16.01563 11.25781,27.05469 0.19531,5.54687 0.54687,6.5625 2.62109,7.5664 1.54688,0.75 2.3125,0.7461 3.89063,-0.0195 1.92578,-0.92968 2.48828,-2.33984 2.48437,-6.23437 0,-7.79688 -1.63281,-15.03906 -4.89453,-21.78906 -5.3164,-11.01563 -14.26172,-19.23047 -24.79297,-23.7461 z m -19.48047,13.84766 c -7.86328,0.0586 -15.71875,3.125 -21.79687,9.1875 -4.60938,4.59375 -7.64453,10.53906 -8.70313,17.03125 -0.14453,0.89844 -0.23828,2.28515 -0.30468,4.33984 0,0 0.45312,3.11719 1.89843,3.96485 1.08204,0.63281 3.52344,0.75 4.6211,0.14453 1.71484,-0.71875 2.48437,-4.10938 2.48437,-4.10938 0.10157,-3.13672 0.23438,-4.36719 0.47657,-5.1875 2.45703,-8.32422 8.89843,-14.35156 17.15234,-16.04297 11.40234,-2.33984 22.76172,4.69922 25.89844,16.04297 0.29297,1.0586 0.58593,3.88281 0.74609,7.22656 0.26172,5.44922 0.53516,7.01954 1.73438,10.01954 1.58593,3.9414 5.4414,8.35546 9.26171,10.59375 2.58594,1.51953 6.47657,2.76562 9.375,3.00781 2.125,0.17578 2.57032,0.125 3.75782,-0.44922 1.41797,-0.6875 2.57031,-2.42578 2.57031,-3.88281 0,-2.28516 -2.32422,-4.44922 -4.78906,-4.45313 -5.69532,-0.0156 -11.375,-4.67578 -12.69922,-10.41797 -0.16406,-0.71484 -0.30469,-2.76953 -0.3125,-4.5664 -0.0391,-9.72657 -3.1211,-17.375 -9.5,-23.58985 -6.125,-5.96875 -14.00391,-8.91797 -21.8711,-8.85937 z m 0.30469,17.80859 c -0.67578,-0.004 -1.35156,0.0508 -2.01953,0.16406 -4.22656,0.72266 -7.86719,3.28516 -9.71094,6.82813 -1.35937,2.60547 -1.71093,4.38281 -1.70312,8.62891 0.0273,18.10546 7.84765,34.60546 21.67187,45.74218 4.70313,3.78907 11.08203,7.41797 16.14844,9.1875 2.67188,0.9336 4.39063,0.47657 5.91797,-1.57031 0.4375,-0.58203 0.61328,-1.26562 0.61328,-2.37891 0,-2.33203 -0.92969,-3.38671 -4.0625,-4.61328 -16.86328,-6.61718 -28.57812,-21.54687 -30.96484,-39.46093 -0.58985,-4.4375 -0.5625,-9.88282 0.0547,-11.1836 1.39844,-2.94922 5.6875,-3.28906 7.60157,-0.60156 0.59375,0.83203 0.67968,1.42578 0.86328,5.82422 0.10937,2.69531 0.42578,5.96484 0.69531,7.26562 1.73438,8.29297 5.20313,14.75 11.10547,20.65235 7.10156,7.10547 15.85937,11.08984 25.78125,11.74218 2.66406,0.17579 3.08203,0.12891 4.30078,-0.46093 1.00781,-0.48828 1.50781,-0.97266 1.96094,-1.91797 0.76562,-1.57813 0.76953,-2.34375 0.0195,-3.89063 -0.88281,-1.82031 -2.17578,-2.41015 -5.78516,-2.6289 -11.59375,-0.69922 -22.01562,-8.01953 -26.6289,-18.69922 -1.76563,-4.08203 -2.29688,-6.72656 -2.58594,-12.80078 -0.26563,-5.65235 -0.375,-6.25391 -1.57422,-8.6211 -2.19141,-4.32812 -6.96094,-7.17578 -11.69922,-7.20703 z m -31.23828,26.05469 c -0.0742,0.125 -0.004,0.16406 -0.004,0.30859 -0.008,16.29688 -0.0391,16.73828 -1.51171,19.80469 -0.3711,0.77734 -1.48438,2.22266 -2.47266,3.21484 -2.53516,2.53907 -5.75781,3.96094 -9.02734,3.97657 -2.5,0.0156 -4.78907,2.14453 -4.78907,4.46093 0,1.44141 1.10938,3.15625 2.5,3.8711 1.04688,0.53906 1.54297,0.59765 3.70313,0.44531 5.21094,-0.36328 10.35547,-2.81641 14.14453,-6.74219 2.50781,-2.59765 4.00391,-5.0625 5.26562,-8.6875 l 0.9336,-2.6875 0.17578,-17.35937 c 0.004,-0.25 0.008,-0.35938 0.008,-0.60547 0,0 -0.87109,-3.30859 -2.26562,-4.08203 -1.19532,-0.66406 -3.1836,-0.65625 -4.36328,0.0312 -1.33985,0.78515 -2.29688,4.05078 -2.29688,4.05078 z m 17.60547,27 c -0.74219,0.004 -1.5,0.21484 -2.19141,0.68359 -0.54687,0.36719 -1.79687,1.8711 -2.78125,3.33985 -5.51562,8.22265 -14.40234,13.39062 -24.03906,13.98437 -2.15234,0.13281 -3.28516,0.35156 -4.0625,0.77735 -1.26172,0.6914 -2.33594,2.42578 -2.33594,3.78515 0,1.44141 1.10938,3.15625 2.5,3.8711 1.0586,0.54687 1.5625,0.60156 4.05469,0.46875 9.44531,-0.51563 18.26172,-4.3125 25.28906,-10.88672 2.63282,-2.46485 5.09766,-5.49219 6.85547,-8.42188 0.80078,-1.33594 1.0586,-2.09375 1.0586,-3.11719 -0.004,-2.60937 -2.1211,-4.49609 -4.34766,-4.48437 z m 12.34375,13.48047 c -0.41797,0.0234 -0.83594,0.13281 -1.30469,0.3125 -1.0664,0.40625 -1.71875,1.0039 -3.24609,2.95703 -1.05078,1.34766 -3.49219,3.95703 -5.42188,5.79687 -1.93359,1.84375 -3.67578,3.63672 -3.87109,3.98438 -0.19922,0.35156 -0.36719,1.25 -0.37109,2.00391 -0.0156,1.64453 0.84375,3.05859 2.36328,3.88671 1.39843,0.76563 3.20312,0.5625 4.8125,-0.54296 0.68359,-0.46875 2.7539,-2.35547 4.60547,-4.19141 1.84765,-1.83594 3.41406,-3.33984 3.48046,-3.33984 0.0625,0 1.29297,0.78515 2.73047,1.74609 4.92578,3.28516 11.9961,6.86328 13.56641,6.86328 2.82031,0 4.95312,-2.72266 4.32422,-5.51953 -0.35938,-1.58594 -1.30469,-2.40625 -4.59375,-3.99609 -4.19922,-2.02344 -8.42188,-4.59766 -11.86719,-7.23047 -2.70312,-2.0625 -3.96094,-2.79297 -5.20703,-2.73047 z m 0,0"
               fill-opacity="1"
               fill-rule="nonzero"
               id="path11"
               style="fill:#ffffff" />
            <g
               clip-path="url(#id1)"
               id="g15"
               style="fill:#ffffff">
              <path
                 fill="#585858"
                 d="m 198.98437,143.21094 -3.26562,3.07031 c -4.52344,4.25391 -14.6875,12.77344 -30.48828,20.36328 -15.89063,7.62891 -37.4375,14.32031 -64.67578,14.83594 l -4.261721,0.082 -0.402344,4.22656 c -1.019531,10.73828 -2.953125,45.08985 8.890625,84.48828 11.87891,39.53125 37.62109,84.20313 91.83203,115.25391 l 2.37109,1.35937 2.3711,-1.35937 c 54.21094,-31.05078 79.95312,-75.72266 91.83594,-115.25391 11.83984,-39.39843 9.90625,-73.75 8.88671,-84.48828 l -0.40234,-4.22656 -4.26562,-0.082 C 270.17578,180.96484 248.62891,174.27344 232.74219,166.64453 216.9375,159.05469 206.77344,150.53516 202.25,146.28125 Z m 0,12.90625 c 5.82422,5.01172 15.64844,12.38281 29.64844,19.10937 16.04297,7.70703 37.50391,14.47266 64.28516,15.61328 0.88281,13.25782 1.26953,42.98047 -8.8711,76.71094 -11.14062,37.07031 -35.01171,78.77344 -85.0625,108.30469 -50.05078,-29.53125 -73.92187,-71.23438 -85.06249,-108.30469 -10.13672,-33.73047 -9.75391,-63.45312 -8.86719,-76.71094 26.78125,-1.14062 48.24218,-7.90625 64.28515,-15.61328 14,-6.72656 23.82032,-14.09765 29.64453,-19.10937 z m 0,0"
                 fill-opacity="1"
                 fill-rule="nonzero"
                 id="path13"
                 style="fill:#ffffff" />
            </g>
          </g>
          <g
             id="g15085"
             transform="matrix(1.0290573,0,0,1.0290573,-843.23761,-216.35228)"
             style="fill:#ffffff">
            <g
               fill="#585858"
               fill-opacity="1"
               id="g23"
               transform="matrix(0.9591008,0,0,0.9591008,104.56733,-34.317123)"
               style="fill:#ffffff">
              <g
                 transform="translate(319.10932,333.7815)"
                 id="g21"
                 style="fill:#ffffff">
                <g
                   id="g19"
                   style="fill:#ffffff">
                  <path
                     d="M 52.90625,-9.15625 C 52.90625,-3.050781 49.882812,0 43.84375,0 H 17.90625 C 11.851562,0 8.828125,-3.050781 8.828125,-9.15625 V -69.6875 c 0,-6.101562 3.023437,-9.15625 9.078125,-9.15625 h 25.9375 c 6.039062,0 9.0625,3.054688 9.0625,9.15625 v 28.359375 l -3.640625,3.8125 H 19.28125 V -9 H 42.453125 V -23.421875 H 52.90625 Z M 42.453125,-46.109375 V -69.84375 H 19.28125 v 23.734375 z m 0,0"
                     id="path17"
                     style="fill:#ffffff" />
                </g>
              </g>
            </g>
            <g
               fill="#585858"
               fill-opacity="1"
               id="g31"
               transform="matrix(0.9591008,0,0,0.9591008,104.56733,-34.317123)"
               style="fill:#ffffff">
              <g
                 transform="translate(381.01615,333.7815)"
                 id="g29"
                 style="fill:#ffffff">
                <g
                   id="g27"
                   style="fill:#ffffff">
                  <path
                     d="m 59.5625,-9 c 0,2.648438 -0.828125,4.808594 -2.484375,6.484375 C 55.429688,-0.835938 53.285156,0 50.640625,0 H 18.71875 C 16.070312,0 13.894531,-0.835938 12.1875,-2.515625 10.488281,-4.191406 9.640625,-6.351562 9.640625,-9 V -41.171875 H 20.90625 V -9.96875 H 48.296875 V -40.1875 l -35,-42.296875 c -2.4375,-2.914063 -3.65625,-6.132813 -3.65625,-9.65625 V -117.8125 c 0,-2.65625 0.847656,-4.81641 2.546875,-6.48438 1.707031,-1.67578 3.882812,-2.51562 6.53125,-2.51562 h 31.921875 c 2.644531,0 4.789063,0.83984 6.4375,2.51562 1.65625,1.66797 2.484375,3.82813 2.484375,6.48438 v 29.484375 H 48.296875 V -116.84375 H 20.90625 v 26.734375 L 56.078125,-47.8125 c 2.320313,2.8125 3.484375,5.976562 3.484375,9.484375 z m 0,0"
                     id="path25"
                     style="fill:#ffffff" />
                </g>
              </g>
            </g>
            <g
               fill="#585858"
               fill-opacity="1"
               id="g39"
               transform="matrix(0.9591008,0,0,0.9591008,104.56733,-34.317123)"
               style="fill:#ffffff">
              <g
                 transform="translate(450.37773,333.7815)"
                 id="g37"
                 style="fill:#ffffff">
                <g
                   id="g35"
                   style="fill:#ffffff">
                  <path
                     d="M 51.78125,0 H 10.125 v -126.8125 h 41.171875 v 9.96875 h -29.90625 v 47.3125 H 48.625 v 10.140625 H 21.390625 V -9.96875 H 51.78125 Z m 0,0"
                     id="path33"
                     style="fill:#ffffff" />
                </g>
              </g>
            </g>
            <g
               fill="#585858"
               fill-opacity="1"
               id="g47"
               transform="matrix(0.9591008,0,0,0.9591008,104.56733,-34.317123)"
               style="fill:#ffffff">
              <g
                 transform="translate(509.61059,333.7815)"
                 id="g45"
                 style="fill:#ffffff">
                <g
                   id="g43"
                   style="fill:#ffffff">
                  <path
                     d="m 52.59375,0 h -48.625 c 0,-4 0,-6 0,-6 L 39.625,-116.84375 H 7.453125 v -9.96875 H 52.59375 c 0,3.88672 0,5.82812 0,5.82812 L 16.9375,-9.96875 h 35.65625 z m 0,0"
                     id="path41"
                     style="fill:#ffffff" />
                </g>
              </g>
            </g>
          </g>
          <g
             id="g29413"
             transform="translate(-5.9980326e-5)"
             style="fill:#ffffff">
            <g
               id="g40969"
               style="fill:#ffffff">
              <g
                 aria-label="Elektroniczny System"
                 id="text4323"
                 style="font-weight:500;font-size:57.8844px;line-height:1.25;font-family:Roboto;-inkscape-font-specification:'Roboto Medium';fill:#ffffff;stroke-width:1.07699"
                 transform="translate(-0.02411853,0.07718384)">
                <path
                   d="m -78.686884,-11.988484 v 5.0359431 H -108.09216 V -47.47162 h 28.594894 v 5.035942 h -22.806454 v 12.445146 h 20.317425 v 4.920174 h -20.317425 v 13.081874 z"
                   style="font-weight:normal;font-family:'Montserrat Medium';-inkscape-font-specification:'Montserrat Medium, ';fill:#ffffff"
                   id="path40874" />
                <path
                   d="m -70.120101,-49.902765 h 5.556903 v 42.9502241 h -5.556903 z"
                   style="font-weight:normal;font-family:'Montserrat Medium';-inkscape-font-specification:'Montserrat Medium, ';fill:#ffffff"
                   id="path40876" />
                <path
                   d="m -26.243765,-22.118254 q 0,0.636729 -0.115769,1.678648 h -24.890292 q 0.52096,4.051908 3.530948,6.540937 3.067874,2.431145 7.582857,2.431145 5.499018,0 8.856313,-3.704602 l 3.067873,3.588833 q -2.083838,2.4311449 -5.209596,3.7046017 -3.067873,1.2734568 -6.888243,1.2734568 -4.86229,0 -8.624776,-1.9680696 -3.762486,-2.0259539 -5.846324,-5.6147869 -2.025954,-3.588833 -2.025954,-8.103816 0,-4.457098 1.968069,-8.045931 2.025954,-3.588833 5.499018,-5.556903 3.530949,-2.025954 7.930163,-2.025954 4.399214,0 7.814394,2.025954 3.473064,1.96807 5.383249,5.556903 1.96807,3.588833 1.96807,8.219584 z m -15.165713,-11.113804 q -3.994024,0 -6.71459,2.431145 -2.662683,2.431144 -3.125758,6.367284 h 19.680696 q -0.463075,-3.878255 -3.183642,-6.3094 -2.662682,-2.489029 -6.656706,-2.489029 z"
                   style="font-weight:normal;font-family:'Montserrat Medium';-inkscape-font-specification:'Montserrat Medium, ';fill:#ffffff"
                   id="path40878" />
                <path
                   d="m -6.6209783,-21.249988 -6.3672837,5.904209 v 8.3932381 h -5.556903 V -49.902765 h 5.556903 v 27.552974 L 3.7403292,-37.631273 H 10.454919 L -2.4533016,-24.954589 11.728376,-6.9525409 H 4.8980172 Z"
                   style="font-weight:normal;font-family:'Montserrat Medium';-inkscape-font-specification:'Montserrat Medium, ';fill:#ffffff"
                   id="path40880" />
                <path
                   d="m 34.361125,-8.7469573 q -1.215573,1.0419192 -3.009989,1.6207632 -1.794416,0.5209596 -3.704602,0.5209596 -4.630752,0 -7.177665,-2.4890292 -2.546914,-2.4890293 -2.546914,-7.1197813 v -16.84436 h -5.209596 v -4.572868 h 5.209596 v -6.71459 h 5.556903 v 6.71459 h 8.798428 v 4.572868 h -8.798428 v 16.612823 q 0,2.489029 1.215572,3.82037 1.273457,1.331341 3.588833,1.331341 2.546913,0 4.34133,-1.44711 z"
                   style="font-weight:normal;font-family:'Montserrat Medium';-inkscape-font-specification:'Montserrat Medium, ';fill:#ffffff"
                   id="path40882" />
                <path
                   d="m 46.401065,-32.479561 q 1.44711,-2.662682 4.283446,-4.051908 2.836335,-1.389226 6.888243,-1.389226 v 5.38325 q -0.463075,-0.05788 -1.273457,-0.05788 -4.514983,0 -7.119781,2.720567 -2.546913,2.662682 -2.546913,7.640741 V -6.9525409 H 41.0757 V -37.631273 h 5.325365 z"
                   style="font-weight:normal;font-family:'Montserrat Medium';-inkscape-font-specification:'Montserrat Medium, ';fill:#ffffff"
                   id="path40884" />
                <path
                   d="m 77.253377,-6.6052345 q -4.572868,0 -8.219585,-2.025954 -3.646717,-2.0259535 -5.730555,-5.5569025 -2.025954,-3.588833 -2.025954,-8.103816 0,-4.514983 2.025954,-8.045931 2.083838,-3.588833 5.730555,-5.556903 3.646717,-2.025954 8.219585,-2.025954 4.572868,0 8.1617,2.025954 3.646717,1.96807 5.672671,5.556903 2.083839,3.530948 2.083839,8.045931 0,4.514983 -2.083839,8.103816 -2.025954,3.530949 -5.672671,5.5569025 -3.588832,2.025954 -8.1617,2.025954 z m 0,-4.8622895 q 2.952104,0 5.26748,-1.331341 2.373261,-1.389226 3.704602,-3.820371 1.331341,-2.489029 1.331341,-5.672671 0,-3.183642 -1.331341,-5.614786 -1.331341,-2.48903 -3.704602,-3.820371 -2.315376,-1.331341 -5.26748,-1.331341 -2.952104,0 -5.325365,1.331341 -2.315376,1.331341 -3.704601,3.820371 -1.331341,2.431144 -1.331341,5.614786 0,3.183642 1.331341,5.672671 1.389225,2.431145 3.704601,3.820371 2.373261,1.331341 5.325365,1.331341 z"
                   style="font-weight:normal;font-family:'Montserrat Medium';-inkscape-font-specification:'Montserrat Medium, ';fill:#ffffff"
                   id="path40886" />
                <path
                   d="m 117.25139,-37.920695 q 5.84632,0 9.2615,3.41518 3.47307,3.357295 3.47307,9.898232 v 17.6547421 h -5.55691 V -23.970554 q 0,-4.457099 -2.14172,-6.714591 -2.14172,-2.257491 -6.13575,-2.257491 -4.51498,0 -7.11978,2.662682 -2.60479,2.604798 -2.60479,7.524972 V -6.9525409 H 100.8701 V -37.631273 h 5.32537 v 4.630752 q 1.67865,-2.37326 4.51498,-3.646717 2.89422,-1.273457 6.54094,-1.273457 z"
                   style="font-weight:normal;font-family:'Montserrat Medium';-inkscape-font-specification:'Montserrat Medium, ';fill:#ffffff"
                   id="path40888" />
                <path
                   d="m 140.28937,-37.631273 h 5.5569 v 30.6787321 h -5.5569 z m 2.77845,-5.904208 q -1.62076,0 -2.72057,-1.041919 -1.04192,-1.04192 -1.04192,-2.546914 0,-1.504994 1.04192,-2.546914 1.09981,-1.099803 2.72057,-1.099803 1.62076,0 2.66268,1.041919 1.09981,0.984035 1.09981,2.489029 0,1.562879 -1.09981,2.662683 -1.04192,1.041919 -2.66268,1.041919 z"
                   style="font-weight:normal;font-family:'Montserrat Medium';-inkscape-font-specification:'Montserrat Medium, ';fill:#ffffff"
                   id="path40890" />
                <path
                   d="m 169.81037,-6.6052345 q -4.68864,0 -8.39324,-2.025954 -3.64672,-2.0259535 -5.73055,-5.5569025 -2.08384,-3.588833 -2.08384,-8.103816 0,-4.514983 2.08384,-8.045931 2.08383,-3.588833 5.73055,-5.556903 3.7046,-2.025954 8.39324,-2.025954 4.16768,0 7.4092,1.678648 3.29941,1.678648 5.09383,4.86229 l -4.22556,2.720566 q -1.44711,-2.199607 -3.58883,-3.29941 -2.14173,-1.099804 -4.74653,-1.099804 -3.00998,0 -5.44113,1.331341 -2.37326,1.331341 -3.76248,3.820371 -1.33135,2.431144 -1.33135,5.614786 0,3.241527 1.33135,5.730556 1.38922,2.431145 3.76248,3.762486 2.43115,1.331341 5.44113,1.331341 2.6048,0 4.74653,-1.099804 2.14172,-1.099803 3.58883,-3.29941 l 4.22556,2.662682 q -1.79442,3.183642 -5.09383,4.9201739 -3.24152,1.6786476 -7.4092,1.6786476 z"
                   style="font-weight:normal;font-family:'Montserrat Medium';-inkscape-font-specification:'Montserrat Medium, ';fill:#ffffff"
                   id="path40892" />
                <path
                   d="m 211.83431,-11.525408 v 4.5728671 h -25.70067 v -3.5888331 l 18.11781,-22.517031 h -17.77051 v -4.572868 h 24.89029 v 3.646718 l -18.11781,22.459147 z"
                   style="font-weight:normal;font-family:'Montserrat Medium';-inkscape-font-specification:'Montserrat Medium, ';fill:#ffffff"
                   id="path40894" />
                <path
                   d="m 235.62477,-37.920695 q 5.84633,0 9.2615,3.41518 3.47307,3.357295 3.47307,9.898232 v 17.6547421 h -5.5569 V -23.970554 q 0,-4.457099 -2.14173,-6.714591 -2.14172,-2.257491 -6.13574,-2.257491 -4.51499,0 -7.11978,2.662682 -2.6048,2.604798 -2.6048,7.524972 v 15.8024411 h -5.5569 V -37.631273 h 5.32536 v 4.630752 q 1.67865,-2.37326 4.51498,-3.646717 2.89422,-1.273457 6.54094,-1.273457 z"
                   style="font-weight:normal;font-family:'Montserrat Medium';-inkscape-font-specification:'Montserrat Medium, ';fill:#ffffff"
                   id="path40896" />
                <path
                   d="M 285.23169,-37.631273 270.3554,-3.8846677 q -1.96807,4.68863635 -4.63075,6.5988215 -2.6048,1.9101852 -6.3094,1.9101852 -2.25749,0 -4.39921,-0.7524972 -2.08384,-0.6946128 -3.47307,-2.0838384 l 2.37326,-4.1676767 q 2.37326,2.25749156 5.49902,2.25749156 2.02595,0 3.3573,-1.09980356 1.38922,-1.0419192 2.48903,-3.6467172 l 0.98403,-2.1417228 -13.54495,-30.6208477 h 5.78844 l 10.70861,24.542986 10.59285,-24.542986 z"
                   style="font-weight:normal;font-family:'Montserrat Medium';-inkscape-font-specification:'Montserrat Medium, ';fill:#ffffff"
                   id="path40898" />
                <path
                   d="m 318.63081,-6.4894657 q -4.57287,0 -8.85631,-1.3892256 -4.22557,-1.44711 -6.65671,-3.7046017 l 2.14172,-4.514983 q 2.31538,2.083838 5.90421,3.41518 3.64672,1.273456 7.46709,1.273456 5.03594,0 7.52497,-1.678647 2.48903,-1.736532 2.48903,-4.572868 0,-2.083838 -1.38923,-3.357295 -1.33134,-1.331341 -3.35729,-2.025954 -1.96807,-0.694613 -5.61479,-1.562879 -4.57286,-1.099803 -7.4092,-2.199607 -2.77845,-1.099803 -4.80441,-3.357295 -1.96807,-2.315376 -1.96807,-6.193631 0,-3.241526 1.67865,-5.846324 1.73653,-2.604798 5.2096,-4.167677 3.47306,-1.562879 8.62477,-1.562879 3.58884,0 7.0619,0.926151 3.47306,0.92615 5.96209,2.662682 l -1.91018,4.630752 q -2.54691,-1.620763 -5.44113,-2.431145 -2.89422,-0.868266 -5.67268,-0.868266 -4.92017,0 -7.4092,1.794417 -2.43114,1.794416 -2.43114,4.630752 0,2.083838 1.38922,3.415179 1.38923,1.273457 3.41518,2.025954 2.08384,0.694613 5.61479,1.504995 4.57287,1.099803 7.35132,2.199607 2.77845,1.099803 4.74652,3.357295 2.02595,2.257491 2.02595,6.077862 0,3.183642 -1.73653,5.846324 -1.73653,2.6047982 -5.26748,4.1676769 -3.53095,1.5049944 -8.68266,1.5049944 z"
                   style="font-weight:normal;font-family:'Montserrat Medium';-inkscape-font-specification:'Montserrat Medium, ';fill:#ffffff"
                   id="path40900" />
                <path
                   d="m 368.52707,-37.631273 -14.87629,33.7466053 q -1.96807,4.68863635 -4.63075,6.5988215 -2.6048,1.9101852 -6.3094,1.9101852 -2.25749,0 -4.39921,-0.7524972 -2.08384,-0.6946128 -3.47307,-2.0838384 l 2.37326,-4.1676767 q 2.37326,2.25749156 5.49902,2.25749156 2.02595,0 3.3573,-1.09980356 1.38922,-1.0419192 2.48902,-3.6467172 l 0.98404,-2.1417228 -13.54495,-30.6208477 h 5.78844 l 10.70861,24.542986 10.59285,-24.542986 z"
                   style="font-weight:normal;font-family:'Montserrat Medium';-inkscape-font-specification:'Montserrat Medium, ';fill:#ffffff"
                   id="path40902" />
                <path
                   d="m 382.12968,-6.6052345 q -3.76248,0 -7.23555,-0.9840348 -3.47306,-1.0419192 -5.44113,-2.6047977 l 2.31538,-4.399215 q 2.02595,1.44711 4.92017,2.315376 2.89422,0.868266 5.84632,0.868266 7.29344,0 7.29344,-4.167676 0,-1.389226 -0.98404,-2.199608 -0.98403,-0.810381 -2.48903,-1.157688 -1.44711,-0.40519 -4.16767,-0.868266 -3.7046,-0.578844 -6.07786,-1.331341 -2.31538,-0.752497 -3.99403,-2.546913 -1.67865,-1.794417 -1.67865,-5.035943 0,-4.167677 3.47307,-6.656706 3.47306,-2.546914 9.31939,-2.546914 3.06787,0 6.13574,0.752498 3.06788,0.752497 5.03595,2.025954 l -2.37326,4.399214 q -3.76249,-2.431145 -8.85632,-2.431145 -3.53095,0 -5.38325,1.157688 -1.8523,1.157688 -1.8523,3.067873 0,1.504995 1.04192,2.373261 1.04192,0.868266 2.54692,1.273457 1.56287,0.40519 4.34133,0.92615 3.7046,0.636728 5.96209,1.389225 2.31537,0.694613 3.93614,2.431145 1.62076,1.736532 1.62076,4.86229 0,4.167677 -3.58883,6.6567057 -3.53095,2.4311448 -9.6667,2.4311448 z"
                   style="font-weight:normal;font-family:'Montserrat Medium';-inkscape-font-specification:'Montserrat Medium, ';fill:#ffffff"
                   id="path40904" />
                <path
                   d="m 419.58084,-8.7469573 q -1.21558,1.0419192 -3.00999,1.6207632 -1.79442,0.5209596 -3.7046,0.5209596 -4.63076,0 -7.17767,-2.4890292 -2.54691,-2.4890293 -2.54691,-7.1197813 v -16.84436 h -5.2096 v -4.572868 h 5.2096 v -6.71459 h 5.5569 v 6.71459 h 8.79843 v 4.572868 h -8.79843 v 16.612823 q 0,2.489029 1.21557,3.82037 1.27346,1.331341 3.58883,1.331341 2.54692,0 4.34133,-1.44711 z"
                   style="font-weight:normal;font-family:'Montserrat Medium';-inkscape-font-specification:'Montserrat Medium, ';fill:#ffffff"
                   id="path40906" />
                <path
                   d="m 452.98003,-22.118254 q 0,0.636729 -0.11577,1.678648 h -24.89029 q 0.52096,4.051908 3.53095,6.540937 3.06787,2.431145 7.58286,2.431145 5.49901,0 8.85631,-3.704602 l 3.06787,3.588833 q -2.08384,2.4311449 -5.20959,3.7046017 -3.06788,1.2734568 -6.88825,1.2734568 -4.86229,0 -8.62477,-1.9680696 -3.76249,-2.0259539 -5.84633,-5.6147869 -2.02595,-3.588833 -2.02595,-8.103816 0,-4.457098 1.96807,-8.045931 2.02595,-3.588833 5.49902,-5.556903 3.53094,-2.025954 7.93016,-2.025954 4.39921,0 7.81439,2.025954 3.47307,1.96807 5.38325,5.556903 1.96807,3.588833 1.96807,8.219584 z m -15.16571,-11.113804 q -3.99402,0 -6.71459,2.431145 -2.66268,2.431144 -3.12576,6.367284 h 19.6807 q -0.46308,-3.878255 -3.18365,-6.3094 -2.66268,-2.489029 -6.6567,-2.489029 z"
                   style="font-weight:normal;font-family:'Montserrat Medium';-inkscape-font-specification:'Montserrat Medium, ';fill:#ffffff"
                   id="path40908" />
                <path
                   d="m 499.05599,-37.920695 q 5.78844,0 9.14574,3.357296 3.41518,3.357295 3.41518,9.956116 v 17.6547421 h -5.5569 V -23.970554 q 0,-4.457099 -2.08384,-6.714591 -2.02596,-2.257491 -5.84633,-2.257491 -4.22556,0 -6.71459,2.662682 -2.48903,2.604798 -2.48903,7.524972 v 15.8024411 h -5.5569 V -23.970554 q 0,-4.457099 -2.08384,-6.714591 -2.02595,-2.257491 -5.84632,-2.257491 -4.22556,0 -6.71459,2.662682 -2.48903,2.604798 -2.48903,7.524972 v 15.8024411 h -5.5569 V -37.631273 h 5.32536 v 4.572868 q 1.67865,-2.37326 4.39922,-3.588833 2.72056,-1.273457 6.19363,-1.273457 3.58883,0 6.36728,1.44711 2.77845,1.44711 4.28345,4.225562 1.73653,-2.662683 4.8044,-4.167677 3.12576,-1.504995 7.00401,-1.504995 z"
                   style="font-weight:normal;font-family:'Montserrat Medium';-inkscape-font-specification:'Montserrat Medium, ';fill:#ffffff"
                   id="path40910" />
              </g>
              <g
                 aria-label="Ewidencji Zmarłych"
                 id="text5401"
                 style="font-weight:500;font-size:57.8844px;line-height:1.25;font-family:Roboto;-inkscape-font-specification:'Roboto Medium';fill:#ffffff;stroke-width:0.727548"
                 transform="translate(-0.02411853,-0.02857115)">
                <path
                   d="m -78.686884,72.758285 v 5.035943 h -29.405276 v -40.51908 h 28.594894 v 5.035943 h -22.806454 v 12.445146 h 20.317425 v 4.920174 h -20.317425 v 13.081874 z"
                   style="font-weight:normal;font-family:'Montserrat Medium';-inkscape-font-specification:'Montserrat Medium, ';fill:#ffffff"
                   id="path40839" />
                <path
                   d="m -24.217816,47.115496 -11.461111,30.678732 h -5.325365 l -8.856313,-23.269529 -8.972082,23.269529 h -5.325365 L -75.561278,47.115496 h 5.26748 l 8.914198,24.427216 9.261504,-24.427216 h 4.688636 l 9.087851,24.542985 9.145735,-24.542985 z"
                   style="font-weight:normal;font-family:'Montserrat Medium';-inkscape-font-specification:'Montserrat Medium, ';fill:#ffffff"
                   id="path40841" />
                <path
                   d="m -18.603133,47.115496 h 5.556903 v 30.678732 h -5.556903 z m 2.778451,-5.904209 q -1.620763,0 -2.720566,-1.041919 -1.04192,-1.041919 -1.04192,-2.546914 0,-1.504994 1.04192,-2.546913 1.099803,-1.099804 2.720566,-1.099804 1.620764,0 2.662683,1.041919 1.099803,0.984035 1.099803,2.48903 0,1.562878 -1.099803,2.662682 -1.041919,1.041919 -2.662683,1.041919 z"
                   style="font-weight:normal;font-family:'Montserrat Medium';-inkscape-font-specification:'Montserrat Medium, ';fill:#ffffff"
                   id="path40843" />
                <path
                   d="m 26.488779,34.844003 v 42.950225 h -5.325365 v -4.86229 q -1.852301,2.546914 -4.688637,3.878255 -2.836335,1.331341 -6.251515,1.331341 -4.4570984,0 -7.9880468,-1.96807 -3.5309484,-1.968069 -5.5569023,-5.499018 -1.9680696,-3.588832 -1.9680696,-8.219584 0,-4.630752 1.9680696,-8.161701 2.0259539,-3.530948 5.5569023,-5.499018 3.5309484,-1.968069 7.9880468,-1.968069 3.299411,0 6.077862,1.273457 2.778451,1.215572 4.630752,3.646717 V 34.844003 Z M 10.686338,73.279244 q 2.894219,0 5.26748,-1.331341 2.37326,-1.389225 3.704601,-3.82037 1.331342,-2.489029 1.331342,-5.672671 0,-3.183642 -1.331342,-5.614787 -1.331341,-2.489029 -3.704601,-3.82037 -2.373261,-1.331342 -5.26748,-1.331342 -2.9521048,0 -5.3253652,1.331342 -2.315376,1.331341 -3.7046016,3.82037 -1.33134117,2.431145 -1.33134117,5.614787 0,3.183642 1.33134117,5.672671 1.3892256,2.431145 3.7046016,3.82037 2.3732604,1.331341 5.3253652,1.331341 z"
                   style="font-weight:normal;font-family:'Montserrat Medium';-inkscape-font-specification:'Montserrat Medium, ';fill:#ffffff"
                   id="path40845" />
                <path
                   d="m 64.750326,62.628515 q 0,0.636728 -0.115769,1.678648 H 39.744265 q 0.52096,4.051907 3.530948,6.540937 3.067874,2.431144 7.582857,2.431144 5.499018,0 8.856313,-3.704601 l 3.067873,3.588833 q -2.083838,2.431144 -5.209596,3.704601 -3.067873,1.273457 -6.888243,1.273457 -4.86229,0 -8.624776,-1.96807 -3.762486,-2.025954 -5.846324,-5.614786 -2.025954,-3.588833 -2.025954,-8.103816 0,-4.457099 1.968069,-8.045932 2.025954,-3.588833 5.499018,-5.556902 3.530949,-2.025954 7.930163,-2.025954 4.399214,0 7.814394,2.025954 3.473064,1.968069 5.383249,5.556902 1.96807,3.588833 1.96807,8.219585 z M 49.584613,51.51471 q -3.994024,0 -6.71459,2.431145 -2.662683,2.431145 -3.125758,6.367284 h 19.680696 q -0.463075,-3.878255 -3.183642,-6.3094 -2.662682,-2.489029 -6.656706,-2.489029 z"
                   style="font-weight:normal;font-family:'Montserrat Medium';-inkscape-font-specification:'Montserrat Medium, ';fill:#ffffff"
                   id="path40847" />
                <path
                   d="m 88.8302,46.826074 q 5.846324,0 9.261504,3.415179 3.473066,3.357296 3.473066,9.898233 V 77.794228 H 96.007866 V 60.776214 q 0,-4.457099 -2.141723,-6.71459 -2.141723,-2.257492 -6.135747,-2.257492 -4.514983,0 -7.119781,2.662683 -2.604798,2.604798 -2.604798,7.524972 V 77.794228 H 72.448915 V 47.115496 h 5.325365 v 4.630752 q 1.678647,-2.373261 4.514983,-3.646717 2.89422,-1.273457 6.540937,-1.273457 z"
                   style="font-weight:normal;font-family:'Montserrat Medium';-inkscape-font-specification:'Montserrat Medium, ';fill:#ffffff"
                   id="path40849" />
                <path
                   d="m 125.41303,78.141534 q -4.68864,0 -8.39324,-2.025954 -3.64671,-2.025954 -5.73055,-5.556902 -2.08384,-3.588833 -2.08384,-8.103816 0,-4.514983 2.08384,-8.045932 2.08384,-3.588833 5.73055,-5.556902 3.7046,-2.025954 8.39324,-2.025954 4.16768,0 7.4092,1.678647 3.29941,1.678648 5.09383,4.86229 l -4.22556,2.720567 q -1.44711,-2.199607 -3.58883,-3.299411 -2.14173,-1.099804 -4.74652,-1.099804 -3.00999,0 -5.44114,1.331342 -2.37326,1.331341 -3.76248,3.82037 -1.33134,2.431145 -1.33134,5.614787 0,3.241526 1.33134,5.730555 1.38922,2.431145 3.76248,3.762486 2.43115,1.331341 5.44114,1.331341 2.60479,0 4.74652,-1.099803 2.14172,-1.099804 3.58883,-3.299411 l 4.22556,2.662682 q -1.79442,3.183642 -5.09383,4.920174 -3.24152,1.678648 -7.4092,1.678648 z"
                   style="font-weight:normal;font-family:'Montserrat Medium';-inkscape-font-specification:'Montserrat Medium, ';fill:#ffffff"
                   id="path40851" />
                <path
                   d="m 141.15754,89.371107 q -2.02596,0 -3.76249,-0.463075 -1.73653,-0.463075 -2.89422,-1.389225 l 1.79442,-4.283446 q 1.73653,1.44711 4.51498,1.44711 2.19961,0 3.35729,-1.389225 1.21558,-1.331342 1.21558,-3.994024 V 47.115496 h 5.5569 v 32.067957 q 0,4.746521 -2.54691,7.467088 -2.54692,2.720566 -7.23555,2.720566 z m 7.00401,-48.15982 q -1.62076,0 -2.72057,-1.041919 -1.04192,-1.041919 -1.04192,-2.546914 0,-1.504994 1.04192,-2.546913 1.09981,-1.099804 2.72057,-1.099804 1.62076,0 2.66268,1.041919 1.0998,0.984035 1.0998,2.48903 0,1.562878 -1.0998,2.662682 -1.04192,1.041919 -2.66268,1.041919 z"
                   style="font-weight:normal;font-family:'Montserrat Medium';-inkscape-font-specification:'Montserrat Medium, ';fill:#ffffff"
                   id="path40853" />
                <path
                   d="m 161.53276,47.115496 h 5.5569 v 30.678732 h -5.5569 z m 2.77845,-5.904209 q -1.62076,0 -2.72056,-1.041919 -1.04192,-1.041919 -1.04192,-2.546914 0,-1.504994 1.04192,-2.546913 1.0998,-1.099804 2.72056,-1.099804 1.62077,0 2.66269,1.041919 1.0998,0.984035 1.0998,2.48903 0,1.562878 -1.0998,2.662682 -1.04192,1.041919 -2.66269,1.041919 z"
                   style="font-weight:normal;font-family:'Montserrat Medium';-inkscape-font-specification:'Montserrat Medium, ';fill:#ffffff"
                   id="path40855" />
                <path
                   d="m 224.33724,72.758285 v 5.035943 h -33.86238 v -3.93614 L 215.944,42.311091 h -25.06395 v -5.035943 h 32.70469 v 3.936139 l -25.35337,31.546998 z"
                   style="font-weight:normal;font-family:'Montserrat Medium';-inkscape-font-specification:'Montserrat Medium, ';fill:#ffffff"
                   id="path40857" />
                <path
                   d="m 269.6607,46.826074 q 5.78844,0 9.14573,3.357295 3.41518,3.357295 3.41518,9.956117 v 17.654742 h -5.5569 V 60.776214 q 0,-4.457099 -2.08384,-6.71459 -2.02595,-2.257492 -5.84632,-2.257492 -4.22556,0 -6.71459,2.662683 -2.48903,2.604798 -2.48903,7.524972 v 15.802441 h -5.5569 V 60.776214 q 0,-4.457099 -2.08384,-6.71459 -2.02596,-2.257492 -5.84633,-2.257492 -4.22556,0 -6.71459,2.662683 -2.48903,2.604798 -2.48903,7.524972 v 15.802441 h -5.5569 V 47.115496 h 5.32537 v 4.572867 q 1.67864,-2.37326 4.39921,-3.588832 2.72057,-1.273457 6.19363,-1.273457 3.58883,0 6.36729,1.44711 2.77845,1.44711 4.28344,4.225561 1.73653,-2.662682 4.80441,-4.167677 3.12575,-1.504994 7.00401,-1.504994 z"
                   style="font-weight:normal;font-family:'Montserrat Medium';-inkscape-font-specification:'Montserrat Medium, ';fill:#ffffff"
                   id="path40859" />
                <path
                   d="m 303.63881,46.826074 q 6.36728,0 9.72458,3.125757 3.41518,3.125758 3.41518,9.319389 v 18.523008 h -5.26748 V 73.74232 q -1.38923,2.141722 -3.99403,3.29941 -2.54691,1.099804 -6.07786,1.099804 -5.15171,0 -8.27747,-2.489029 -3.06787,-2.489029 -3.06787,-6.540937 0,-4.051908 2.9521,-6.483053 2.95211,-2.489029 9.37728,-2.489029 h 8.79842 v -1.099804 q 0,-3.588833 -2.08383,-5.499018 -2.08384,-1.910185 -6.13575,-1.910185 -2.72057,0 -5.32537,0.92615 -2.60479,0.868266 -4.39921,2.373261 l -2.31538,-4.167677 q 2.37326,-1.910185 5.67268,-2.89422 3.29941,-1.041919 7.00401,-1.041919 z m -1.27346,27.032014 q 3.18364,0 5.49902,-1.389225 2.31537,-1.44711 3.35729,-4.051908 v -4.283446 h -8.56689 q -7.06189,0 -7.06189,4.746521 0,2.315376 1.79441,3.646717 1.79442,1.331341 4.97806,1.331341 z"
                   style="font-weight:normal;font-family:'Montserrat Medium';-inkscape-font-specification:'Montserrat Medium, ';fill:#ffffff"
                   id="path40861" />
                <path
                   d="m 332.40732,52.267207 q 1.44711,-2.662682 4.28345,-4.051908 2.83633,-1.389225 6.88824,-1.389225 v 5.383249 q -0.46308,-0.05788 -1.27346,-0.05788 -4.51498,0 -7.11978,2.720566 -2.54691,2.662683 -2.54691,7.640741 v 15.281482 h -5.5569 V 47.115496 h 5.32536 z"
                   style="font-weight:normal;font-family:'Montserrat Medium';-inkscape-font-specification:'Montserrat Medium, ';fill:#ffffff"
                   id="path40863" />
                <path
                   d="m 350.87233,34.844003 h 5.5569 v 42.950225 h -5.5569 z m -6.13574,26.395286 15.33936,-11.692648 2.48903,3.357295 -15.33936,11.634764 z"
                   style="font-weight:normal;font-family:'Montserrat Medium';-inkscape-font-specification:'Montserrat Medium, ';fill:#ffffff"
                   id="path40865" />
                <path
                   d="m 394.63282,47.115496 -14.87629,33.746605 q -1.96807,4.688636 -4.63076,6.598821 -2.60479,1.910185 -6.3094,1.910185 -2.25749,0 -4.39921,-0.752497 -2.08384,-0.694613 -3.47306,-2.083838 l 2.37326,-4.167677 q 2.37326,2.257492 5.49901,2.257492 2.02596,0 3.3573,-1.099804 1.38922,-1.041919 2.48903,-3.646717 l 0.98403,-2.141723 -13.54495,-30.620847 h 5.78844 l 10.70862,24.542985 10.59284,-24.542985 z"
                   style="font-weight:normal;font-family:'Montserrat Medium';-inkscape-font-specification:'Montserrat Medium, ';fill:#ffffff"
                   id="path40867" />
                <path
                   d="m 412.34528,78.141534 q -4.68863,0 -8.39324,-2.025954 -3.64671,-2.025954 -5.73055,-5.556902 -2.08384,-3.588833 -2.08384,-8.103816 0,-4.514983 2.08384,-8.045932 2.08384,-3.588833 5.73055,-5.556902 3.70461,-2.025954 8.39324,-2.025954 4.16768,0 7.4092,1.678647 3.29942,1.678648 5.09383,4.86229 l -4.22556,2.720567 q -1.44711,-2.199607 -3.58883,-3.299411 -2.14172,-1.099804 -4.74652,-1.099804 -3.00999,0 -5.44114,1.331342 -2.37326,1.331341 -3.76248,3.82037 -1.33134,2.431145 -1.33134,5.614787 0,3.241526 1.33134,5.730555 1.38922,2.431145 3.76248,3.762486 2.43115,1.331341 5.44114,1.331341 2.6048,0 4.74652,-1.099803 2.14172,-1.099804 3.58883,-3.299411 l 4.22556,2.662682 q -1.79441,3.183642 -5.09383,4.920174 -3.24152,1.678648 -7.4092,1.678648 z"
                   style="font-weight:normal;font-family:'Montserrat Medium';-inkscape-font-specification:'Montserrat Medium, ';fill:#ffffff"
                   id="path40869" />
                <path
                   d="m 448.00188,46.826074 q 5.84632,0 9.2615,3.415179 3.47306,3.357296 3.47306,9.898233 v 17.654742 h -5.5569 V 60.776214 q 0,-4.457099 -2.14172,-6.71459 -2.14172,-2.257492 -6.13575,-2.257492 -4.51498,0 -7.11978,2.662683 -2.6048,2.604798 -2.6048,7.524972 v 15.802441 h -5.5569 V 34.844003 h 5.5569 v 16.612823 q 1.73654,-2.199607 4.51499,-3.41518 2.83633,-1.215572 6.3094,-1.215572 z"
                   style="font-weight:normal;font-family:'Montserrat Medium';-inkscape-font-specification:'Montserrat Medium, ';fill:#ffffff"
                   id="path40871" />
              </g>
            </g>
          </g>
        </g>
      </g>
    </g>
  </g>
</svg>
