<?xml version="1.0" encoding="UTF-8" standalone="no"?>
<!-- Created with Inkscape (http://www.inkscape.org/) -->

<svg
   version="1.1"
   id="svg9"
   width="20.000124"
   height="31.900393"
   viewBox="0 0 20.000124 31.900393"
   sodipodi:docname="pogrzeb-kremacyjny-w-toku.svg"
   inkscape:version="1.2 (dc2aedaf03, 2022-05-15)"
   xmlns:inkscape="http://www.inkscape.org/namespaces/inkscape"
   xmlns:sodipodi="http://sodipodi.sourceforge.net/DTD/sodipodi-0.dtd"
   xmlns="http://www.w3.org/2000/svg"
   xmlns:svg="http://www.w3.org/2000/svg">
  <defs
     id="defs13" />
  <sodipodi:namedview
     id="namedview11"
     pagecolor="#505050"
     bordercolor="#eeeeee"
     borderopacity="1"
     inkscape:showpageshadow="0"
     inkscape:pageopacity="0"
     inkscape:pagecheckerboard="0"
     inkscape:deskcolor="#505050"
     showgrid="false"
     inkscape:zoom="1.5859375"
     inkscape:cx="-49.497537"
     inkscape:cy="29.004926"
     inkscape:window-width="1920"
     inkscape:window-height="1057"
     inkscape:window-x="1912"
     inkscape:window-y="-8"
     inkscape:window-maximized="1"
     inkscape:current-layer="g15" />
  <g
     inkscape:groupmode="layer"
     inkscape:label="Image"
     id="g15"
     transform="translate(-206.22412,-154.34104)">
    <path
       style="fill:#d56a11;stroke-width:0.0623638"
       d="m 210.39005,186.14708 c -0.4494,-0.19575 -0.37607,0.0446 -2.20247,-7.2182 -0.9358,-3.72129 -1.75874,-7.08673 -1.82875,-7.47874 -0.0951,-0.53265 -0.12903,-1.00431 -0.13418,-1.8665 -0.004,-0.63455 0.0151,-1.18881 0.0421,-1.23168 0.0388,-0.0618 2.09835,-0.078 9.95745,-0.078 7.85911,0 9.91863,0.0161 9.95746,0.078 0.0269,0.0429 0.0459,0.59713 0.0421,1.23168 -0.005,0.85816 -0.0392,1.33433 -0.13285,1.85865 -0.0693,0.38771 -0.89217,3.75309 -1.82866,7.47864 -1.83527,7.30104 -1.75363,7.03492 -2.21766,7.2288 -0.29679,0.12401 -11.36946,0.12149 -11.65446,-0.003 z m -3.92582,-19.97786 c 0.0389,-0.27869 0.1559,-1.48852 0.1559,-1.61248 0,-0.074 1.43311,-0.0869 9.60403,-0.0869 8.17092,0 9.60404,0.013 9.60404,0.0869 0,0.12396 0.11697,1.33379 0.1559,1.61248 l 0.0327,0.23387 h -9.79261 -9.7926 z m 1.22648,-3.62167 c 0.0114,-0.0282 0.75407,-0.73036 1.65032,-1.56026 0.89624,-0.82991 1.70037,-1.61596 1.78695,-1.74679 0.39542,-0.59753 0.43985,-1.11691 0.19362,-2.26341 -0.13453,-0.62644 -0.15107,-0.79802 -0.0949,-0.98537 0.13344,-0.44539 0.30461,-0.53728 1.92005,-1.03076 1.96299,-0.59965 2.07803,-0.62259 3.10863,-0.61974 1.00414,0.003 1.19889,0.0431 3.23096,0.66947 1.41195,0.4352 1.60442,0.54401 1.73535,0.98103 0.0561,0.18735 0.0396,0.35893 -0.0949,0.98537 -0.24598,1.14534 -0.2017,1.66602 0.19231,2.26142 0.0859,0.12973 0.88998,0.91563 1.78695,1.74643 0.89697,0.83081 1.64021,1.53382 1.65164,1.56225 0.0114,0.0284 -3.82862,0.0517 -8.53346,0.0517 -4.70483,0 -8.54489,-0.0231 -8.53345,-0.0513 z"
       id="path123" />
  </g>
</svg>
