<?xml version="1.0" encoding="UTF-8" standalone="no"?>
<!-- Created with Inkscape (http://www.inkscape.org/) -->

<svg
   version="1.1"
   id="svg189"
   width="19.916336"
   height="31.900005"
   viewBox="0 0 19.916336 31.900005"
   sodipodi:docname="pogrzeb-tradycyjny.svg"
   inkscape:version="1.2 (dc2aedaf03, 2022-05-15)"
   xmlns:inkscape="http://www.inkscape.org/namespaces/inkscape"
   xmlns:sodipodi="http://sodipodi.sourceforge.net/DTD/sodipodi-0.dtd"
   xmlns="http://www.w3.org/2000/svg"
   xmlns:svg="http://www.w3.org/2000/svg">
  <defs
     id="defs193" />
  <sodipodi:namedview
     id="namedview191"
     pagecolor="#505050"
     bordercolor="#eeeeee"
     borderopacity="1"
     inkscape:showpageshadow="0"
     inkscape:pageopacity="0"
     inkscape:pagecheckerboard="0"
     inkscape:deskcolor="#505050"
     showgrid="false"
     inkscape:zoom="3.6875"
     inkscape:cx="-49.491526"
     inkscape:cy="51.79661"
     inkscape:window-width="1920"
     inkscape:window-height="1027"
     inkscape:window-x="-8"
     inkscape:window-y="22"
     inkscape:window-maximized="1"
     inkscape:current-layer="g195" />
  <g
     inkscape:groupmode="layer"
     inkscape:label="Image"
     id="g195"
     transform="translate(-161.49889,-13.516949)">
    <path
       style="fill:#1a1a1a;stroke-width:0.0624;opacity:0.99"
       d="m 165.87225,45.376102 c -0.32772,-0.135505 -0.27687,0.09424 -2.3789,-10.748015 -1.11331,-5.742402 -2.01071,-10.514287 -1.99424,-10.604189 0.0165,-0.0899 0.93195,-2.420544 2.03438,-5.179203 1.32846,-3.324262 2.05601,-5.068354 2.15741,-5.171746 l 0.15299,-0.156 h 5.61317 5.61316 l 0.15299,0.156 c 0.1014,0.103392 0.82896,1.847484 2.15741,5.171746 1.10243,2.758659 2.0179,5.089301 2.03438,5.179203 0.0165,0.0899 -0.88137,4.864075 -1.99522,10.609273 -1.91086,9.856173 -2.03433,10.454971 -2.18735,10.608007 l -0.16218,0.162192 -5.5366,0.01217 c -3.04513,0.0067 -5.59276,-0.01105 -5.6614,-0.03943 z m 9.14374,-2.796334 0.19129,-0.1716 1.74863,-9.034559 1.74862,-9.034559 -1.57578,-3.942453 c -1.10297,-2.759515 -1.62195,-3.985238 -1.72965,-4.085049 l -0.15387,-0.142597 h -3.78817 -3.78818 l -0.15387,0.142597 c -0.1077,0.09981 -0.62668,1.325534 -1.72965,4.085049 l -1.57578,3.942453 1.74862,9.034559 1.74863,9.034559 0.1913,0.1716 0.19129,0.1716 h 3.36764 3.36763 z m -6.14688,-1.216107 c -0.0144,-0.04328 -0.75713,-3.864011 -1.65053,-8.490509 l -1.62437,-8.411816 1.39021,-3.475393 1.3902,-3.475392 h 3.08244 3.08243 l 1.39016,3.475283 1.39016,3.475282 -1.6399,8.474326 -1.6399,8.474326 -2.57237,0.01629 c -2.02613,0.01283 -2.57793,-4.36e-4 -2.59853,-0.0624 z"
       id="path199"
       sodipodi:nodetypes="ssssscccssssscssccccsscccssccccccccsscccccccccss" />
  </g>
</svg>
