<?xml version="1.0" encoding="UTF-8" standalone="no"?>
<!-- Creator: CorelDRAW -->

<svg
   xml:space="preserve"
   width="15.340095mm"
   height="8.4666662mm"
   style="clip-rule:evenodd;fill-rule:evenodd;image-rendering:optimizeQuality;shape-rendering:geometricPrecision;text-rendering:geometricPrecision"
   viewBox="0 0 15.340095 8.466666"
   version="1.1"
   id="svg2013"
   sodipodi:docname="zus-czerwony.svg"
   inkscape:version="1.2 (dc2aedaf03, 2022-05-15)"
   xmlns:inkscape="http://www.inkscape.org/namespaces/inkscape"
   xmlns:sodipodi="http://sodipodi.sourceforge.net/DTD/sodipodi-0.dtd"
   xmlns="http://www.w3.org/2000/svg"
   xmlns:svg="http://www.w3.org/2000/svg"><sodipodi:namedview
   id="namedview2015"
   pagecolor="#505050"
   bordercolor="#eeeeee"
   borderopacity="1"
   inkscape:showpageshadow="0"
   inkscape:pageopacity="0"
   inkscape:pagecheckerboard="0"
   inkscape:deskcolor="#505050"
   inkscape:document-units="mm"
   showgrid="false"
   inkscape:zoom="8.2279173"
   inkscape:cx="33.362027"
   inkscape:cy="18.352153"
   inkscape:window-width="1920"
   inkscape:window-height="1027"
   inkscape:window-x="-8"
   inkscape:window-y="22"
   inkscape:window-maximized="1"
   inkscape:current-layer="Warstwa_x0020_1" />
 <defs
   id="defs2007">
  <style
   type="text/css"
   id="style2005">
   <![CDATA[
    .fil0 {fill:#00923F}
   ]]>
  </style>
 </defs>
 <g
   id="Warstwa_x0020_1"
   inkscape:label="Warstwa 1"
   inkscape:groupmode="layer"
   transform="translate(0,2e-4)">
  <metadata
   id="CorelCorpID_0Corel-Layer" />
  <path
   class="fil0"
   d="m 4.0588457,1.3176059 h 0.021809 l -0.021809,0.043591 z M 10.620146,5.7557356 C 10.596163,5.5290438 10.519873,5.2805325 10.384717,5.0189486 9.9792675,4.3628264 9.5759925,3.7088861 9.1705445,3.0527446 c -0.466476,-0.7215133 0.04579,-0.9024518 0.682295,-0.8610332 0.09156,0.00437 0.1547835,0.00872 0.2463215,0.013092 C 9.9858145,1.9039735 9.8986225,1.6031723 9.7852665,1.3023423 c -0.300811,0 -0.599458,0 -0.900261,0 -0.25941,0 -0.462129,0.034873 -0.70845,0.1395197 -0.7149956,0.3029832 -0.7825685,0.8370509 -0.344421,1.6653932 0.313893,0.4948119 0.627786,0.9918154 0.941699,1.4888093 0.298629,0.5689501 0.104627,1.1204446 -0.571123,1.1204446 H 4.0588457 v 1.4474003 c 1.6218024,0 3.2392313,0 4.8588518,0 0.211447,0 0.390194,0.00217 0.597267,-0.045764 C 10.171107,6.9720798 10.561291,6.5818957 10.620146,6.0521918 Z M 4.0588457,4.273453 c 0.095929,0.6277857 0.4948312,1.1400533 1.499719,1.2097987 0.5493221,0.039247 1.1051805,-0.00872 1.6588475,-0.013063 v -4.152583 l -1.0375884,0.013072 v 3.2370495 c -0.252856,-0.00872 -0.5057216,0 -0.7476872,-0.095919 C 5.0092618,4.3039715 5.0332247,3.9312236 5.2010809,3.28381 5.4059821,2.6233142 5.6087014,1.9628281 5.8136027,1.3023419 H 4.7215234 L 4.2441382,2.7519435 C 4.1634928,3.0069814 4.0937281,3.2881738 4.0588457,3.567194 Z M 2.4435892,1.3176059 h 1.6152565 v 0.043591 L 2.5046261,4.5677276 H 3.9847267 L 3.6316069,5.4701889 H 2.4435892 Z M 4.0588457,3.567194 c -0.028326,0.239774 -0.0327,0.4817395 0,0.706259 z m 0,2.1493147 V 7.163909 c -0.5384027,0 -1.0768248,0 -1.6152565,0 V 5.7165087 Z M 1.3689367,1.3176059 h 1.0746525 v 4.152583 H 0.8043602 L 2.3738439,2.23313 0.9286159,2.246222 Z M 2.4435892,5.7165087 V 7.163909 c -0.8152505,0 -1.6305109,0 -2.4435892,0 L 0.6953589,5.7165087 Z"
   id="path2010"
   style="fill:#ff0000;fill-opacity:1;stroke-width:0.0965464" />
 </g>
</svg>
